# xmcd CD database file
#
# Track frame offsets:
#	150
#	13777
#	29752
#	43815
#	57527
#	72652
#	89055
#	102977
#	117430
#	130727
#
# Disc length: 1953 seconds
#
# Revision: 0
# Processed by: cddbd v1.5.2PL0 Copyright (c) Steve Scherf et al.
# Submitted via: CDex 1.70beta2
#
DISCID=9b079f0a
DTITLE=Charlie Mariano with the Stephan Diez Group - Enjoy
DYEAR=1900
DGENRE=Jazz
TTITLE0=Enjoy
TTITLE1=African Journey
TTITLE2=Unicorn
TTITLE3=Trplet Rock
TTITLE4=Summer Sweets
TTITLE5=Give
TTITLE6=Jazz Trax
TTITLE7=Zephyr
TTITLE8=Acid Is
TTITLE9=Exotica
EXTD=
EXTT0=
EXTT1=
EXTT2=
EXTT3=
EXTT4=
EXTT5=
EXTT6=
EXTT7=
EXTT8=
EXTT9=
PLAYORDER=
